<svg xmlns="http://www.w3.org/2000/svg" width="30" height="19" viewBox="0 0 30 19"><g><g><g><path fill="#b5b2b1" d="M15 0a3 3 0 1 1 0 6 3 3 0 0 1 0-6zm-1 4h2V2h-2z"/></g><g><path fill="#b5b2b1" d="M3 13a3 3 0 1 1 0 6 3 3 0 0 1 0-6zm-1 4h2v-2H2z"/></g><g><path fill="#b5b2b1" d="M27 13a3 3 0 1 1 0 6 3 3 0 0 1 0-6zm-1 4h2v-2h-2z"/></g><g><path fill="#b5b2b1" d="M15.99 4.49a1 1 0 0 1 1.414 0l8.606 8.606a1 1 0 0 1-1.414 1.414L15.99 5.904a1 1 0 0 1 0-1.414z"/></g><g><path fill="#b5b2b1" d="M14.01 4.49a1 1 0 0 1 0 1.414L5.404 14.51a1 1 0 1 1-1.414-1.414l8.606-8.606a1 1 0 0 1 1.414 0z"/></g></g></g></svg>