<svg xmlns="http://www.w3.org/2000/svg" width="641" height="1038" viewBox="0 0 641 1038"><defs><clipPath id="ffd7a"><path fill="#fff" d="M45 799h6a2 2 0 0 1 2 2v18a2 2 0 0 1-2 2h-6a2 2 0 0 1-2-2v-18a2 2 0 0 1 2-2z"/></clipPath><clipPath id="ffd7b"><path fill="#fff" d="M45 836h6a2 2 0 0 1 2 2v18a2 2 0 0 1-2 2h-6a2 2 0 0 1-2-2v-18a2 2 0 0 1 2-2z"/></clipPath><clipPath id="ffd7c"><path fill="#fff" d="M48 977c7.18 0 13 5.82 13 13s-5.82 13-13 13-13-5.82-13-13 5.82-13 13-13z"/></clipPath><clipPath id="ffd7d"><path fill="#fff" d="M35 880l7-8 12 17 7-9"/></clipPath><clipPath id="ffd7e"><path fill="#fff" d="M35 241l7-8 12 17 7-9"/></clipPath><clipPath id="ffd7f"><path fill="#fff" d="M45 267h6a2 2 0 0 1 2 2v18a2 2 0 0 1-2 2h-6a2 2 0 0 1-2-2v-18a2 2 0 0 1 2-2z"/></clipPath><clipPath id="ffd7g"><path fill="#fff" d="M37 412h22a2 2 0 0 1 2 2v18a2 2 0 0 1-2 2H37a2 2 0 0 1-2-2v-18a2 2 0 0 1 2-2z"/></clipPath><clipPath id="ffd7h"><path fill="#fff" d="M35 565h26a2 2 0 0 1 2 2v24a2 2 0 0 1-2 2H35a2 2 0 0 1-2-2v-24a2 2 0 0 1 2-2z"/></clipPath><clipPath id="ffd7i"><path fill="#fff" d="M41 619h14a8 8 0 0 1 8 8H33a8 8 0 0 1 8-8zm7-17a8 8 0 1 1 0 16 8 8 0 0 1 0-16z"/></clipPath><clipPath id="ffd7j"><path fill="#fff" d="M61 641a2 2 0 0 1 2 2v18a2 2 0 0 1-2 2H35a2 2 0 0 1-2-2v-22a2 2 0 0 1 2-2h10a2 2 0 0 1 2 2v2z"/></clipPath><clipPath id="ffd7k"><path fill="#fff" d="M48 674c7.18 0 13 5.82 13 13s-5.82 13-13 13-13-5.82-13-13 5.82-13 13-13z"/></clipPath><clipPath id="ffd7m"><path fill="#fff" d="M530.132 1006h76.737"/></clipPath><clipPath id="ffd7n"><path fill="#fff" d="M530.299 1006h30.403"/></clipPath><clipPath id="ffd7l"><path d="M352 918h2v48h-2zm4 7h2v34h-2zm4 4h2v26h-2zm4 2h2v22h-2zm4-13h2v48h-2zm4 7h2v34h-2zm4 12h2v10h-2zm4 3h2v4h-2zm4-16h2v36h-2zm4 6h2v24h-2zm4 2h2v20h-2zm4 6h2v8h-2zm8-9h2v26h-2zm4 4h2v18h-2zm4 0h2v16h-2zm4 0h2v16h-2zm4-9h2v36h-2zm4 4h2v28h-2zm4 5h2v16h-2zm4-9h2v36h-2zm4 3h2v30h-2zm4 10h2v10h-2zm4-18h2v46h-2zm4 0h2v46h-2zm4 4h2v38h-2zm4 3h2v32h-2zm4 6h2v18h-2zm4-4h2v28h-2zm4 4h2v20h-2zm4 7h2v6h-2zm4 1h2v4h-2zm4 0h2v4h-2zm4-16h2v36h-2zm4 5h2v26h-2zm4 0h2v26h-2zm4 7h2v12h-2zm4-17h2v46h-2zm4 4h2v38h-2zm4-2h2v42h-2zm4 8h2v26h-2zm4 7h2v12h-2zm4 2h2v8h-2zm12-4h2v16h-2zm4 4h2v8h-2zm8-19h2v46h-2zm4 4h2v38h-2zm4-2h2v42h-2zm4 8h2v26h-2zm4 7h2v12h-2zm4-17h2v46h-2zm4 2h2v42h-2zm4 2h2v38h-2zm4 4h2v30h-2zm4 8h2v14h-2zm4-4h2v22h-2zm4 8h2v6h-2zm4-20h2v46h-2zm4 0h2v46h-2zm4 8h2v30h-2zm4 1h2v28h-2zm4 2h2v24h-2zm4 3h2v18h-2zm4-14h2v46h-2zm4 10h2v26h-2zm4-7h2v40h-2zm4 16h2v8h-2zm8-9h2v26h-2zm4 4h2v16h-2zm4-12h2v42h-2zm4 5h2v32h-2zm4 2h2v28h-2zm4 4h2v18h-2zm4 2h2v16h-2zm4 4h2v8h-2zm4-9h2v26h-2zm-268 12h2v2h-2zm124 0h2v2h-2zm4 0h2v2h-2zm12 0h2v2h-2zm92 0h2v2h-2z"/></clipPath></defs><g><g><g><path fill="#353535" d="M257 4h384v1020H257z"/></g><g><g><path fill="#202020" d="M257 620h384v37H257z"/></g><g><g><text dominant-baseline="text-before-edge" style="line-height:36px" fill="#b5b2b1" font-family="'Ubuntu','Ubuntu'" font-size="20" font-style="none" font-weight="400" transform="translate(306 163)"><tspan style="font-kerning:normal" letter-spacing=".2">Amp </tspan><tspan style="font-kerning:normal" letter-spacing=".2">Audio Effect Rack </tspan><tspan style="font-kerning:normal" letter-spacing=".2">Auto Filter </tspan><tspan style="font-kerning:normal" letter-spacing=".2">Auto Pan </tspan><tspan style="font-kerning:normal" letter-spacing=".2">Auto Tune </tspan><tspan style="font-kerning:normal" letter-spacing=".2">Beat Repeat </tspan><tspan style="font-kerning:normal" letter-spacing=".2">Cabinet </tspan><tspan style="font-kerning:normal" letter-spacing=".2">Chorus </tspan><tspan style="font-kerning:normal" letter-spacing=".2">Compressor </tspan><tspan style="font-kerning:normal" letter-spacing=".2">Corpus </tspan><tspan style="font-kerning:normal" letter-spacing=".2">Dynamic Tube </tspan><tspan style="font-kerning:normal" letter-spacing=".2"> </tspan><tspan style="font-kerning:normal" letter-spacing=".2"> </tspan><tspan style="font-kerning:normal" letter-spacing=".2"> </tspan><tspan style="font-kerning:normal" letter-spacing=".2"> </tspan><tspan style="font-kerning:normal" letter-spacing=".2"> </tspan><tspan style="font-kerning:normal" letter-spacing=".2"> </tspan><tspan style="font-kerning:normal" letter-spacing=".2">EQ </tspan><tspan style="font-kerning:normal" letter-spacing=".2">Erosion </tspan><tspan style="font-kerning:normal" letter-spacing=".2">External Audio Effect </tspan><tspan style="font-kerning:normal" letter-spacing=".2">Filter Delay </tspan><tspan style="font-kerning:normal" letter-spacing=".2">Flanger </tspan><tspan style="font-kerning:normal" letter-spacing=".2">Frequency Shifter </tspan><tspan style="font-kerning:normal" letter-spacing=".2">Gate </tspan><tspan style="font-kerning:normal" letter-spacing=".2">Glue Compressor </tspan><tspan style="font-kerning:normal" letter-spacing=".2">Grain Delay </tspan><tspan style="font-kerning:normal" letter-spacing=".2">Limiter </tspan><tspan style="font-kerning:normal" letter-spacing=".2">Looper </tspan><tspan style="font-kerning:normal" letter-spacing=".2">Multiband Distorsion </tspan><tspan style="font-kerning:normal" letter-spacing=".2">Multiband Dynamics </tspan><tspan style="font-kerning:normal" letter-spacing=".2">Overdrive </tspan><tspan style="font-kerning:normal" letter-spacing=".2">Phaser </tspan><tspan style="font-kerning:normal" letter-spacing=".2">Ping Pong Delay </tspan><tspan style="font-kerning:normal" letter-spacing=".2">Redux </tspan><tspan style="font-kerning:normal" letter-spacing=".2">Resonators </tspan><tspan style="font-kerning:normal" letter-spacing=".2">Reverb </tspan><tspan style="font-kerning:normal" letter-spacing=".2">Saturator </tspan><tspan style="font-kerning:normal" letter-spacing=".2">Simple Delay </tspan><tspan style="font-kerning:normal" letter-spacing=".2">Spectrum </tspan><tspan style="font-kerning:normal" letter-spacing=".2">Stereo Imager </tspan><tspan style="font-kerning:normal" letter-spacing=".2">Transient Designer </tspan><tspan style="font-kerning:normal" letter-spacing=".2">Utility </tspan><tspan style="font-kerning:normal" letter-spacing=".2">Vinyl Distorsion </tspan><tspan style="font-kerning:normal" letter-spacing=".2">Vocoder </tspan></text></g></g><g><g><text dominant-baseline="text-before-edge" style="line-height:36px" fill="#b5b2b1" font-family="'Ubuntu','Ubuntu'" font-size="20" font-style="none" font-weight="400" transform="translate(350 559)"><tspan style="font-kerning:normal" letter-spacing=".2">Broken Tube </tspan><tspan style="font-kerning:normal" letter-spacing=".2"> Discreet Beat Dirt </tspan><tspan style="font-kerning:normal" letter-spacing=".2"> Distortion Gate </tspan><tspan style="font-kerning:normal" letter-spacing=".2"> Hot Driven Tape </tspan><tspan style="font-kerning:normal" letter-spacing=".2"> Tube Trash </tspan><tspan style="font-kerning:normal" letter-spacing=".2"> Warm Tube</tspan></text></g></g><g><g><g><text fill="#b5b2b1" dominant-baseline="text-before-edge" font-family="'Ubuntu','Ubuntu'" font-size="20" font-style="none" font-weight="400" transform="translate(572 778)"><tspan style="font-kerning:normal" letter-spacing=".2">+</tspan><tspan style="font-kerning:normal" letter-spacing=".2">5%</tspan></text></g></g><g><g><text fill="#b5b2b1" dominant-baseline="text-before-edge" font-family="'Ubuntu','Ubuntu'" font-size="20" font-style="none" font-weight="400" transform="translate(585 523)"><tspan style="font-kerning:normal" letter-spacing=".2">1</tspan><tspan style="font-kerning:normal" letter-spacing=".2">%</tspan></text></g></g><g><g><text fill="#b5b2b1" dominant-baseline="text-before-edge" font-family="'Ubuntu','Ubuntu'" font-size="20" font-style="none" font-weight="400" transform="translate(556 451)"><tspan style="font-kerning:normal" letter-spacing=".2">2</tspan><tspan style="font-kerning:normal" letter-spacing=".2">.45%</tspan></text></g></g><g><g><text fill="#b5b2b1" dominant-baseline="text-before-edge" font-family="'Ubuntu','Ubuntu'" font-size="20" font-style="none" font-weight="400" transform="translate(567 415)"><tspan style="font-kerning:normal" letter-spacing=".2">0</tspan><tspan style="font-kerning:normal" letter-spacing=".2">.1%</tspan></text></g></g><g><g><text fill="#b5b2b1" dominant-baseline="text-before-edge" font-family="'Ubuntu','Ubuntu'" font-size="20" font-style="none" font-weight="400" transform="translate(567 846)"><tspan style="font-kerning:normal" letter-spacing=".2">0</tspan><tspan style="font-kerning:normal" letter-spacing=".2">.1%</tspan></text></g></g><g><g><text fill="#b5b2b1" dominant-baseline="text-before-edge" font-family="'Ubuntu','Ubuntu'" font-size="20" font-style="none" font-weight="400" transform="translate(573 916)"><tspan style="font-kerning:normal" letter-spacing=".2">1</tspan><tspan style="font-kerning:normal" letter-spacing=".2">0%</tspan></text></g></g><g><g><text fill="#b5b2b1" dominant-baseline="text-before-edge" font-family="'Ubuntu','Ubuntu'" font-size="20" font-style="none" font-weight="400" transform="translate(501 992)"><tspan style="font-kerning:normal" letter-spacing=".2">+</tspan><tspan style="font-kerning:normal" letter-spacing=".2">5.87% CPU</tspan></text></g></g><g><g><text fill="#b5b2b1" dominant-baseline="text-before-edge" font-family="'Ubuntu','Ubuntu'" font-size="20" font-style="none" font-weight="400" transform="translate(556 163)"><tspan style="font-kerning:normal" letter-spacing=".2">5</tspan><tspan style="font-kerning:normal" letter-spacing=".2">.87%</tspan></text></g></g></g><g><g><path fill="#b5b2b1" d="M295.012 170.488l-6.018 5.503v-11.006z"/></g><g><path fill="#b5b2b1" d="M295.012 206.488l-6.018 5.503v-11.006z"/></g><g><path fill="#b5b2b1" d="M295.012 242.488l-6.018 5.503v-11.006z"/></g><g><path fill="#b5b2b1" d="M295.012 278.488l-6.018 5.503v-11.006z"/></g><g><path fill="#b5b2b1" d="M295.012 314.488l-6.018 5.502v-11.005z"/></g><g><path fill="#b5b2b1" d="M295.012 350.488l-6.018 5.503v-11.006z"/></g><g><path fill="#b5b2b1" d="M295.012 386.488l-6.018 5.503v-11.006z"/></g><g><path fill="#b5b2b1" d="M295.012 422.488l-6.018 5.502v-11.005z"/></g><g><path fill="#b5b2b1" d="M295.012 458.488l-6.018 5.503v-11.006z"/></g><g><path fill="#b5b2b1" d="M295.012 494.488l-6.018 5.503v-11.006z"/></g><g><path fill="#b5b2b1" d="M295.012 782.488l-6.018 5.503v-11.006z"/></g><g><path fill="#b5b2b1" d="M295.012 818.488l-6.018 5.502v-11.005z"/></g><g><path fill="#b5b2b1" d="M295.012 854.488l-6.018 5.502v-11.005z"/></g><g><path fill="#b5b2b1" d="M295.012 890.488l-6.018 5.503v-11.006z"/></g><g><path fill="#b5b2b1" d="M295.012 926.488l-6.018 5.502v-11.005z"/></g><g><path fill="#b5b2b1" d="M295.012 962.488l-6.018 5.502v-11.005z"/></g><g><path fill="#b5b2b1" d="M295.012 998.488l-6.018 5.503v-11.006z"/></g><g><path fill="#b5b2b1" d="M291.512 534.012l-5.503-6.018h11.006z"/></g></g><g><g><path fill="#b5b2b1" d="M290 131h322v1H290z"/></g><g><g><text dominant-baseline="text-before-edge" style="text-transform:uppercase;line-height:28px" fill="#b5b2b1" font-family="'Ubuntu','Ubuntu'" font-size="16" font-style="none" font-weight="400" transform="translate(290 108)"><tspan style="font-kerning:normal" letter-spacing=".16">A</tspan><tspan style="font-kerning:normal" letter-spacing=".16">udio Effects</tspan></text></g></g><g><g><text dominant-baseline="text-before-edge" style="text-transform:uppercase;line-height:28px" fill="#b5b2b1" font-family="'Ubuntu','Ubuntu'" font-size="16" font-style="none" font-weight="400" transform="translate(527 108)"><tspan style="font-kerning:normal" letter-spacing=".16">C</tspan><tspan style="font-kerning:normal" letter-spacing=".16">PU USAGE</tspan></text></g></g></g><g><g><path fill="#b5b2b1" d="M309 555h26a2 2 0 0 1 2 2v18a2 2 0 0 1-2 2h-26a2 2 0 0 1-2-2v-18a2 2 0 0 1 2-2zm0 3v3h26v-3a1 1 0 0 0-1-1h-24a1 1 0 0 0-1 1zm0 16a1 1 0 0 0 1 1h24a1 1 0 0 0 1-1v-11h-26z"/></g><g><path fill="#b5b2b1" d="M309 591h26a2 2 0 0 1 2 2v18a2 2 0 0 1-2 2h-26a2 2 0 0 1-2-2v-18a2 2 0 0 1 2-2zm0 3v3h26v-3a1 1 0 0 0-1-1h-24a1 1 0 0 0-1 1zm0 16a1 1 0 0 0 1 1h24a1 1 0 0 0 1-1v-11h-26z"/></g><g><path fill="#b5b2b1" d="M309 627h26a2 2 0 0 1 2 2v18a2 2 0 0 1-2 2h-26a2 2 0 0 1-2-2v-18a2 2 0 0 1 2-2zm0 3v3h26v-3a1 1 0 0 0-1-1h-24a1 1 0 0 0-1 1zm0 16a1 1 0 0 0 1 1h24a1 1 0 0 0 1-1v-11h-26z"/></g><g><path fill="#b5b2b1" d="M309 663h26a2 2 0 0 1 2 2v18a2 2 0 0 1-2 2h-26a2 2 0 0 1-2-2v-18a2 2 0 0 1 2-2zm0 3v3h26v-3a1 1 0 0 0-1-1h-24a1 1 0 0 0-1 1zm0 16a1 1 0 0 0 1 1h24a1 1 0 0 0 1-1v-11h-26z"/></g><g><path fill="#b5b2b1" d="M309 699h26a2 2 0 0 1 2 2v18a2 2 0 0 1-2 2h-26a2 2 0 0 1-2-2v-18a2 2 0 0 1 2-2zm0 3v3h26v-3a1 1 0 0 0-1-1h-24a1 1 0 0 0-1 1zm0 16a1 1 0 0 0 1 1h24a1 1 0 0 0 1-1v-11h-26z"/></g><g><path fill="#b5b2b1" d="M309 735h26a2 2 0 0 1 2 2v18a2 2 0 0 1-2 2h-26a2 2 0 0 1-2-2v-18a2 2 0 0 1 2-2zm0 3v3h26v-3a1 1 0 0 0-1-1h-24a1 1 0 0 0-1 1zm0 16a1 1 0 0 0 1 1h24a1 1 0 0 0 1-1v-11h-26z"/></g></g></g><g><g><path fill="#505050" d="M0 0h257v1038H0z"/></g><g><path fill="#202020" d="M0 260h257v37H0z"/></g><g><g><g><text dominant-baseline="text-before-edge" style="line-height:36px" fill="#b5b2b1" font-family="'Ubuntu','Ubuntu'" font-size="20" font-style="none" font-weight="400" transform="translate(78 803)"><tspan style="font-kerning:normal" letter-spacing=".2">EQ Low cut </tspan><tspan style="font-kerning:normal" letter-spacing=".2">Hall Reverb </tspan><tspan style="font-kerning:normal" letter-spacing=".2">Operator Sub </tspan><tspan style="font-kerning:normal" letter-spacing=".2">Ozone 6 Limiter </tspan><tspan style="font-kerning:normal" letter-spacing=".2">Amen Break </tspan><tspan style="font-kerning:normal" letter-spacing=".2">Add Favorite...</tspan></text></g></g><g><g><path fill="#b5b2b1" d="M32 768h193v1H32z"/></g><g><g><text dominant-baseline="text-before-edge" style="text-transform:uppercase;line-height:28px" fill="#b5b2b1" font-family="'Ubuntu','Ubuntu'" font-size="16" font-style="none" font-weight="400" transform="translate(33 745)"><tspan style="font-kerning:normal" letter-spacing=".16">F</tspan><tspan style="font-kerning:normal" letter-spacing=".16">avorites</tspan></text></g></g></g><g><g><g><path fill="#b5b2b1" d="M55 907h2v22h-2z"/></g><g><path fill="#b5b2b1" d="M51 907h4v2h-4z"/></g><g><path fill="#b5b2b1" d="M51 927h5v2h-5z"/></g><g><path fill="#b5b2b1" d="M60 917h-3v-2h3a1 1 0 0 0 0-2h-3v-2h3a3 3 0 0 1 0 6zm0 8h-3v-2h3a1 1 0 0 0 0-2h-3v-2h3a3 3 0 0 1 0 6zm-20-10h4v2h-4a1 1 0 0 0 0 2h4v2h-4a3 3 0 0 1 0-6z"/></g><g><path fill="none" stroke="#b5b2b1" stroke-linejoin="round" stroke-miterlimit="20" stroke-width="2" d="M44 917l7-9"/></g><g><path fill="none" stroke="#b5b2b1" stroke-linejoin="round" stroke-miterlimit="20" stroke-width="2" d="M44 920l7 9"/></g></g><g><g><path fill="#b5b2b1" d="M35 809h2v-2h2v2h2v-4h2v4h4v-6h2v6h6v-2h2v2h4v2h-2v2h-2v-2h-2v4h-2v-4h-4v6h-2v-6h-6v2h-2v-2h-4z"/></g><g><path fill="none" stroke="#b5b2b1" stroke-miterlimit="20" stroke-width="4" d="M45 799h6a2 2 0 0 1 2 2v18a2 2 0 0 1-2 2h-6a2 2 0 0 1-2-2v-18a2 2 0 0 1 2-2z" clip-path="url(&quot;#ffd7a&quot;)"/></g></g><g><g><path fill="#b5b2b1" d="M35 846h2v-2h2v2h2v-4h2v4h4v-6h2v6h6v-2h2v2h4v2h-2v2h-2v-2h-2v4h-2v-4h-4v6h-2v-6h-6v2h-2v-2h-4z"/></g><g><path fill="none" stroke="#b5b2b1" stroke-miterlimit="20" stroke-width="4" d="M45 836h6a2 2 0 0 1 2 2v18a2 2 0 0 1-2 2h-6a2 2 0 0 1-2-2v-18a2 2 0 0 1 2-2z" clip-path="url(&quot;#ffd7b&quot;)"/></g></g><g><g><path fill="none" stroke="#b5b2b1" stroke-miterlimit="20" stroke-width="4" d="M48 977c7.18 0 13 5.82 13 13s-5.82 13-13 13-13-5.82-13-13 5.82-13 13-13z" clip-path="url(&quot;#ffd7c&quot;)"/></g><g><path fill="#b5b2b1" d="M47 985h2v4h4v2h-4v4h-2v-4h-4v-2h4z"/></g></g><g><path fill="#b5b2b1" d="M34 953h3v-2h2v2h2v-4h2v4h2v-8h2v8h2v-6h2v6h2v-2h2v2h2v-2h2v2h2v2h-4v2h-2v-2h-2v4h-2v-4h-2v8h-2v-8h-2v6h-2v-6h-2v2h-2v-2h-5z"/></g><g><path fill="none" stroke="#b5b2b1" stroke-miterlimit="20" stroke-width="4" d="M35 880v0l7-8v0l12 17v0l7-9v0" clip-path="url(&quot;#ffd7d&quot;)"/></g></g></g><g><g><g><text dominant-baseline="text-before-edge" style="line-height:36px" fill="#b5b2b1" font-family="'Ubuntu','Ubuntu'" font-size="20" font-style="none" font-weight="400" transform="translate(78 162)"><tspan style="font-kerning:normal" letter-spacing=".2">Type of Sounds </tspan><tspan style="font-kerning:normal" letter-spacing=".2">Drums </tspan><tspan style="font-kerning:normal" letter-spacing=".2">Instruments </tspan><tspan style="font-kerning:normal" letter-spacing=".2">Audio Effects </tspan><tspan style="font-kerning:normal" letter-spacing=".2">MIDI Effects </tspan><tspan style="font-kerning:normal" letter-spacing=".2">Max for Live </tspan><tspan style="font-kerning:normal" letter-spacing=".2">Plug-ins </tspan><tspan style="font-kerning:normal" letter-spacing=".2">Clips </tspan><tspan style="font-kerning:normal" letter-spacing=".2">Samples</tspan></text></g></g><g><g><g><path fill="#b5b2b1" d="M50 156a1 1 0 0 1 1 1v20a1 1 0 1 1-2 0v-20a1 1 0 0 1 1-1z"/></g><g><path fill="#b5b2b1" d="M43.33 173.572c2.392-1.38 5.226-.95 6.33.964 1.105 1.913.062 4.583-2.33 5.964-2.391 1.38-5.225.95-6.33-.964-1.105-1.913-.061-4.583 2.33-5.964z"/></g><g><path fill="#b5b2b1" d="M51 156c0 6.063 7 7.358 7 12s-.634 4.975-1 5c-.366.025.383-4.028-2-6-2.383-1.972-4-3-4-3v-8z"/></g></g><g><path fill="#b5b2b1" d="M35 195h12v10H35zm2 8h8v-6h-8zm12-8h12v10H49zm2 8h8v-6h-8zm-2 4h12v10H49zm2 8h8v-6h-8zm-16-8h12v10H35zm2 8h8v-6h-8z"/></g><g><path fill="none" stroke="#b5b2b1" stroke-miterlimit="20" stroke-width="4" d="M35 241v0l7-8v0l12 17v0l7-9v0" clip-path="url(&quot;#ffd7e&quot;)"/></g><g><g><path fill="#b5b2b1" d="M35 277h2v-2h2v2h2v-4h2v4h4v-6h2v6h6v-2h2v2h4v2h-2v2h-2v-2h-2v4h-2v-4h-4v6h-2v-6h-6v2h-2v-2h-4z"/></g><g><path fill="none" stroke="#b5b2b1" stroke-miterlimit="20" stroke-width="4" d="M45 267h6a2 2 0 0 1 2 2v18a2 2 0 0 1-2 2h-6a2 2 0 0 1-2-2v-18a2 2 0 0 1 2-2z" clip-path="url(&quot;#ffd7f&quot;)"/></g></g><g><g><path fill="#b5b2b1" d="M61 317v2h-8v4a2 2 0 0 1-2 2h-6a2 2 0 0 1-2-2v-8h-8v-2h8v-2h-4v-2h4v-4a2 2 0 0 1 2-2h6a2 2 0 0 1 2 2v4h4v2h-4v6zm-10-11a1 1 0 0 0-1-1h-4a1 1 0 0 0-1 1v3h6zm0 5h-6v2h3v2h-3v7a1 1 0 0 0 1 1h4a1 1 0 0 0 1-1v-3h-3v-2h3z"/></g></g><g><g><path fill="#b5b2b1" d="M59 357v3h-2v-3H41v3h-2v-3a3 3 0 0 1-3-3v-8a3 3 0 0 1 3-3v-3h2v3h16v-3h2v3a3 3 0 0 1 3 3v8a3 3 0 0 1-3 3zm1-12H38v10h22z"/></g></g><g><g><path fill="#b5b2b1" d="M55 375h2v22h-2z"/></g><g><path fill="#b5b2b1" d="M51 375h4v2h-4z"/></g><g><path fill="#b5b2b1" d="M51 395h5v2h-5z"/></g><g><path fill="#b5b2b1" d="M60 385h-3v-2h3a1 1 0 0 0 0-2h-3v-2h3a3 3 0 0 1 0 6zm0 8h-3v-2h3a1 1 0 0 0 0-2h-3v-2h3a3 3 0 0 1 0 6zm-20-10h4v2h-4a1 1 0 0 0 0 2h4v2h-4a3 3 0 0 1 0-6z"/></g><g><path fill="none" stroke="#b5b2b1" stroke-linejoin="round" stroke-miterlimit="20" stroke-width="2" d="M44 385l7-9"/></g><g><path fill="none" stroke="#b5b2b1" stroke-linejoin="round" stroke-miterlimit="20" stroke-width="2" d="M44 388l7 9"/></g></g><g><g><path fill="#b5b2b1" d="M52.98 422.993l-7.974 6.997v-13.994z"/></g><g><path fill="none" stroke="#b5b2b1" stroke-miterlimit="20" stroke-width="4" d="M37 412h22a2 2 0 0 1 2 2v18a2 2 0 0 1-2 2H37a2 2 0 0 1-2-2v-18a2 2 0 0 1 2-2z" clip-path="url(&quot;#ffd7g&quot;)"/></g></g><g><path fill="#b5b2b1" d="M34 458h3v-2h2v2h2v-4h2v4h2v-8h2v8h2v-6h2v6h2v-2h2v2h2v-2h2v2h2v2h-4v2h-2v-2h-2v4h-2v-4h-2v8h-2v-8h-2v6h-2v-6h-2v2h-2v-2h-5z"/></g></g><g><g><path fill="#b5b2b1" d="M32 131h193v1H32z"/></g><g><g><text dominant-baseline="text-before-edge" style="text-transform:uppercase;line-height:28px" fill="#b5b2b1" font-family="'Ubuntu','Ubuntu'" font-size="16" font-style="none" font-weight="400" transform="translate(33 108)"><tspan style="font-kerning:normal" letter-spacing=".16">C</tspan><tspan style="font-kerning:normal" letter-spacing=".16">ategories</tspan></text></g></g></g></g><g><g><g><text dominant-baseline="text-before-edge" style="line-height:36px" fill="#b5b2b1" font-family="'Ubuntu','Ubuntu'" font-size="20" font-style="none" font-weight="400" transform="translate(78 571)"><tspan style="font-kerning:normal" letter-spacing=".2">Packs </tspan><tspan style="font-kerning:normal" letter-spacing=".2">User Library </tspan><tspan style="font-kerning:normal" letter-spacing=".2">Current Project </tspan><tspan style="font-kerning:normal" letter-spacing=".2">Add Folder...</tspan></text></g></g><g><g><g><path fill="none" stroke="#b5b2b1" stroke-miterlimit="20" stroke-width="4" d="M35 565h26a2 2 0 0 1 2 2v24a2 2 0 0 1-2 2H35a2 2 0 0 1-2-2v-24a2 2 0 0 1 2-2z" clip-path="url(&quot;#ffd7h&quot;)"/></g><g><path fill="#b5b2b1" d="M36 568h24v2H36zm0 20h24v2H36z"/></g></g><g><path fill="none" stroke="#b5b2b1" stroke-miterlimit="20" stroke-width="4" d="M41 619h14a8 8 0 0 1 8 8H33a8 8 0 0 1 8-8zm7-17a8 8 0 1 1 0 16 8 8 0 0 1 0-16z" clip-path="url(&quot;#ffd7i&quot;)"/></g><g><g><path fill="none" stroke="#b5b2b1" stroke-miterlimit="20" stroke-width="4" d="M61 641a2 2 0 0 1 2 2v18a2 2 0 0 1-2 2H35a2 2 0 0 1-2-2v-22a2 2 0 0 1 2-2h10a2 2 0 0 1 2 2v2z" clip-path="url(&quot;#ffd7j&quot;)"/></g><g><path fill="#b5b2b1" d="M45 649h6v2h-6zm8 0h6v2h-6zm-8 4h6v2h-6zm8 4h6v2h-6z"/></g></g><g><g><path fill="none" stroke="#b5b2b1" stroke-miterlimit="20" stroke-width="4" d="M48 674c7.18 0 13 5.82 13 13s-5.82 13-13 13-13-5.82-13-13 5.82-13 13-13z" clip-path="url(&quot;#ffd7k&quot;)"/></g><g><path fill="#b5b2b1" d="M47 682h2v4h4v2h-4v4h-2v-4h-4v-2h4z"/></g></g></g><g><g><path fill="#b5b2b1" d="M32 540h193v1H32z"/></g><g><g><text dominant-baseline="text-before-edge" style="text-transform:uppercase;line-height:28px" fill="#b5b2b1" font-family="'Ubuntu','Ubuntu'" font-size="16" font-style="none" font-weight="400" transform="translate(33 517)"><tspan style="font-kerning:normal" letter-spacing=".16">P</tspan><tspan style="font-kerning:normal" letter-spacing=".16">laces</tspan></text></g></g></g></g></g><g><g><path fill="#202020" d="M257 0h384v76H257z"/></g><g><path fill="#505050" d="M1 0h640v4H1z"/></g><g><path fill="#b5b2b1" d="M608.974 53.433l-1.453 1.453-4.874-4.865v-.77l-.263-.273a6.309 6.309 0 0 1-4.124 1.53 6.336 6.336 0 1 1 6.337-6.336 6.31 6.31 0 0 1-1.53 4.124l.272.263h.77zm-6.327-9.26a4.381 4.381 0 0 0-4.387-4.388 4.381 4.381 0 0 0-4.387 4.387 4.38 4.38 0 0 0 4.387 4.387 4.38 4.38 0 0 0 4.387-4.387z"/></g><g><g><text dominant-baseline="text-before-edge" style="line-height:36px" fill="#b5b2b1" font-family="'Ubuntu','Ubuntu'" font-size="20" font-style="none" font-weight="400" transform="translate(287 39)"><tspan style="font-kerning:normal" letter-spacing=".2">S</tspan><tspan style="font-kerning:normal" letter-spacing=".2">earch for anything</tspan></text></g></g></g><g><g><path fill="#505050" d="M259 910h382v64H259z"/></g><g><g><path fill="#353535" d="M290 928h40a2 2 0 0 1 2 2v25a2 2 0 0 1-2 2h-40a2 2 0 0 1-2-2v-25a2 2 0 0 1 2-2z"/></g><g><path fill="#b5b2b1" d="M310.495 934c-4.69 0-8.495 3.605-8.495 8.05v6.262c0 1.485 1.265 2.684 2.832 2.684h2.832v-7.156h-3.776v-1.79c0-3.461 2.954-6.26 6.607-6.26s6.608 2.799 6.608 6.26v1.79h-3.776v7.156h2.832c1.567 0 2.832-1.199 2.832-2.684v-6.261c0-4.446-3.804-8.051-8.496-8.051z"/></g></g><g><g><path fill="#b5b2b1" d="M352 918h2v48h-2zm4 7h2v34h-2zm4 4h2v26h-2zm4 2h2v22h-2zm4-13h2v48h-2zm4 7h2v34h-2zm4 12h2v10h-2zm4 3h2v4h-2zm4-16h2v36h-2zm4 6h2v24h-2zm4 2h2v20h-2zm4 6h2v8h-2zm8-9h2v26h-2zm4 4h2v18h-2zm4 0h2v16h-2zm4 0h2v16h-2zm4-9h2v36h-2zm4 4h2v28h-2zm4 5h2v16h-2zm4-9h2v36h-2zm4 3h2v30h-2zm4 10h2v10h-2zm4-18h2v46h-2zm4 0h2v46h-2zm4 4h2v38h-2zm4 3h2v32h-2zm4 6h2v18h-2zm4-4h2v28h-2zm4 4h2v20h-2zm4 7h2v6h-2zm4 1h2v4h-2zm4 0h2v4h-2zm4-16h2v36h-2zm4 5h2v26h-2zm4 0h2v26h-2zm4 7h2v12h-2zm4-17h2v46h-2zm4 4h2v38h-2zm4-2h2v42h-2zm4 8h2v26h-2zm4 7h2v12h-2zm4 2h2v8h-2zm12-4h2v16h-2zm4 4h2v8h-2zm8-19h2v46h-2zm4 4h2v38h-2zm4-2h2v42h-2zm4 8h2v26h-2zm4 7h2v12h-2zm4-17h2v46h-2zm4 2h2v42h-2zm4 2h2v38h-2zm4 4h2v30h-2zm4 8h2v14h-2zm4-4h2v22h-2zm4 8h2v6h-2zm4-20h2v46h-2zm4 0h2v46h-2zm4 8h2v30h-2zm4 1h2v28h-2zm4 2h2v24h-2zm4 3h2v18h-2zm4-14h2v46h-2zm4 10h2v26h-2zm4-7h2v40h-2zm4 16h2v8h-2zm8-9h2v26h-2zm4 4h2v16h-2zm4-12h2v42h-2zm4 5h2v32h-2zm4 2h2v28h-2zm4 4h2v18h-2zm4 2h2v16h-2zm4 4h2v8h-2zm4-9h2v26h-2zm-268 12h2v2h-2zm124 0h2v2h-2zm4 0h2v2h-2zm12 0h2v2h-2zm92 0h2v2h-2z"/></g><g clip-path="url(#ffd7l)"><path fill="#0bcae6" d="M346 904h77v80h-77z"/></g></g></g><g><g><path fill="#353535" d="M1 974h640v64H1z"/></g><g><path fill="#202020" d="M1 974h640v2H1z"/></g><g><g><g><text dominant-baseline="text-before-edge" style="line-height:36px" fill="#b5b2b1" font-family="'Ubuntu','Ubuntu'" font-size="20" font-style="none" font-weight="400" transform="translate(357 1000)"><tspan style="font-kerning:normal" letter-spacing=".2">G</tspan><tspan style="font-kerning:normal" letter-spacing=".2">roove Amount</tspan></text></g></g><g><g><path fill="none" stroke="#5a5a5a" stroke-linecap="round" stroke-miterlimit="20" stroke-width="10" d="M530.132 1006h76.737" clip-path="url(&quot;#ffd7m&quot;)"/></g><g><path fill="none" stroke="#ffc907" stroke-linecap="round" stroke-miterlimit="20" stroke-width="10" d="M530.299 1006h30.403" clip-path="url(&quot;#ffd7n&quot;)"/></g></g></g><g><g><text dominant-baseline="text-before-edge" style="line-height:36px" fill="#b5b2b1" font-family="'Ubuntu','Ubuntu-Bold'" font-size="20" font-style="none" font-weight="700" transform="translate(78 1000)"><tspan style="font-kerning:normal" letter-spacing=".2">G</tspan><tspan style="font-kerning:normal" letter-spacing=".2">roove</tspan></text></g></g><g><g><path fill="#b5b2b1" d="M46 993c7.18 0 13 5.82 13 13s-5.82 13-13 13-13-5.82-13-13 5.82-13 13-13z"/></g><g><path fill="#353535" d="M49.996 1005.996l-6.002-5.502v11.005z"/></g></g><g><path fill="#8d8d8d" d="M14.5 995a1.5 1.5 0 1 1 0 3 1.5 1.5 0 0 1 0-3zm5 0a1.5 1.5 0 1 1 0 3 1.5 1.5 0 0 1 0-3zm-5 5a1.5 1.5 0 1 1 0 3 1.5 1.5 0 0 1 0-3zm5 0a1.5 1.5 0 1 1 0 3 1.5 1.5 0 0 1 0-3zm-5 5a1.5 1.5 0 1 1 0 3 1.5 1.5 0 0 1 0-3zm5 0a1.5 1.5 0 1 1 0 3 1.5 1.5 0 0 1 0-3zm-5 5a1.5 1.5 0 1 1 0 3 1.5 1.5 0 0 1 0-3zm5 0a1.5 1.5 0 1 1 0 3 1.5 1.5 0 0 1 0-3zm-5 5a1.5 1.5 0 1 1 0 3 1.5 1.5 0 0 1 0-3zm5 0a1.5 1.5 0 1 1 0 3 1.5 1.5 0 0 1 0-3z"/></g></g><g><path fill="#353535" d="M249 336a3 3 0 0 1 3 3v495a3 3 0 0 1-6 0V339a3 3 0 0 1 3-3z"/></g><g><path fill="#505050" d="M631 113a3 3 0 0 1 3 3v167a3 3 0 0 1-6 0V116a3 3 0 0 1 3-3z"/></g><g><g><path fill="#8d8d8d" d="M14.5 36a1.5 1.5 0 1 1 0 3 1.5 1.5 0 0 1 0-3zm5 0a1.5 1.5 0 1 1 0 3 1.5 1.5 0 0 1 0-3zm-5 5a1.5 1.5 0 1 1 0 3 1.5 1.5 0 0 1 0-3zm5 0a1.5 1.5 0 1 1 0 3 1.5 1.5 0 0 1 0-3zm-5 5a1.5 1.5 0 1 1 0 3 1.5 1.5 0 0 1 0-3zm5 0a1.5 1.5 0 1 1 0 3 1.5 1.5 0 0 1 0-3zm-5 5a1.5 1.5 0 1 1 0 3 1.5 1.5 0 0 1 0-3zm5 0a1.5 1.5 0 1 1 0 3 1.5 1.5 0 0 1 0-3zm-5 5a1.5 1.5 0 1 1 0 3 1.5 1.5 0 0 1 0-3zm5 0a1.5 1.5 0 1 1 0 3 1.5 1.5 0 0 1 0-3z"/></g><g><g><path fill="#b5b2b1" d="M46 34c7.18 0 13 5.82 13 13s-5.82 13-13 13-13-5.82-13-13 5.82-13 13-13z"/></g><g><path fill="#353535" d="M49.996 46.996l-6.002-5.502v11.005z"/></g></g><g><g><path fill="#b5b2b1" d="M213 55h3v2h-5v-5h2zm-2-15h5v2h-3v3h-2zm16 12h2v5h-5v-2h3zm2-12v5h-2v-3h-3v-2z"/></g></g><g><g><text dominant-baseline="text-before-edge" style="line-height:36px" fill="#b5b2b1" font-family="'Ubuntu','Ubuntu-Bold'" font-size="20" font-style="none" font-weight="700" transform="translate(79 41)"><tspan style="font-kerning:normal" letter-spacing=".2">B</tspan><tspan style="font-kerning:normal" letter-spacing=".2">rowser</tspan></text></g></g></g></g></g></svg>